<svg width="124" height="128" viewBox="0 0 124 128" fill="none" xmlns="http://www.w3.org/2000/svg">
<g clip-path="url(#clip0_887_1050)">
<path d="M30.723 2.51307H29.1315C26.4773 2.51307 25.3627 2.94799 25.2836 6.8368H24.6016V1.31006H39.4294V6.82662H38.7399C38.6608 2.94799 37.519 2.5029 34.8673 2.5029H33.2758V19.1543C33.2758 21.039 33.8072 21.2017 35.2133 21.2017V21.7765H28.7879V21.2017C30.3004 21.2017 30.7254 21.039 30.7254 19.1543L30.723 2.51307Z" fill="black"/>
<path d="M40.457 21.7865V21.2778C41.2528 21.2778 41.705 21.0871 41.705 19.6399V4.17621C41.705 2.51285 41.6778 2.21273 40.2988 2.43146V1.88463L44.1442 0V9.09254C45.1525 7.72675 46.6155 6.27957 48.7062 6.27957C51.3332 6.27957 52.685 8.13623 52.685 10.7839V19.6297C52.685 21.0769 53.1372 21.2676 53.9849 21.2676V21.7763H48.6543V21.2676C49.7688 21.2676 50.2186 21.0769 50.2186 19.6297V11.1934C50.2186 9.25531 49.3957 8.16166 47.7004 8.16166C45.921 8.16166 44.888 9.41809 44.1442 10.5092V19.6297C44.1442 21.0769 44.5421 21.2676 45.7357 21.2676V21.7763L40.457 21.7865Z" fill="black"/>
<path d="M56.3725 11.5213H63.0845C62.872 9.06444 61.8909 7.45194 59.9534 7.45194C58.5225 7.45194 56.8766 8.73634 56.3725 11.5213ZM53.8789 14.7972C53.8789 9.3086 57.3536 6.36084 60.3513 6.36084C63.5343 6.36084 65.6843 8.76432 65.6843 12.5845H56.2341C56.2131 12.8297 56.2048 13.0759 56.2093 13.322C56.2093 17.4728 58.2506 20.0111 61.0086 20.0111C62.867 20.0111 64.4067 18.7826 65.1752 16.2978L65.7585 16.5165C65.2074 19.5482 63.2699 22.0153 60.0077 22.0153C56.1352 22.0153 53.8789 18.7089 53.8789 14.8074" fill="black"/>
<path d="M11.8884 21.1049V35.5487C11.8884 38.2218 12.8967 38.8551 14.8342 38.8551V39.4299H8.75977V38.8551C10.1388 38.8551 10.5885 38.2014 10.5885 35.9632V21.5983C10.5885 19.8764 10.1388 19.5636 8.75977 19.5229V18.9634H13.5071L22.6238 34.0735V22.8522C22.6238 20.1791 21.9096 19.5229 19.9992 19.5229V18.9634H25.8365V19.5356C24.3784 19.5356 23.9261 20.2173 23.9261 22.4554V39.5646H23.0241L11.8884 21.1049Z" fill="black"/>
<path d="M27.4599 29.1597H34.172C33.9595 26.7028 32.9784 25.0903 31.0409 25.0903C29.61 25.0903 27.9641 26.362 27.4599 29.1597ZM24.9664 32.4432C24.9664 26.9546 28.441 24.0068 31.4387 24.0068C34.6218 24.0068 36.7718 26.4103 36.7718 30.233H27.3191C27.298 30.4774 27.2898 30.7227 27.2944 30.968C27.2944 35.1188 29.3357 37.6571 32.0936 37.6571C33.9521 37.6571 35.4892 36.4286 36.2578 33.9438L36.8435 34.1625C36.285 37.1942 34.3499 39.6511 31.0853 39.6511C27.2128 39.6511 24.959 36.3447 24.959 32.4432" fill="black"/>
<path d="M51.1766 24.2461H55.8968V24.8133C55.1035 24.8133 54.5993 25.7976 54.0136 27.5169L49.8099 39.6436H49.2267L46.014 30.5257L42.5394 39.6436H41.929L37.4979 26.7844C36.9419 25.1744 36.7022 24.8184 35.9336 24.8184V24.2461H41.106V24.8133C39.9124 24.8133 39.3761 25.1694 39.9396 26.7793L42.8854 35.4267L45.4827 28.9284L44.7141 26.7717C44.1581 25.1617 43.8912 24.8057 43.0163 24.8057V24.2334H48.295V24.8133C47.1286 24.8133 46.5651 25.1694 47.1286 26.7793L50.0941 35.3784L52.4023 28.4986C53.3044 25.9069 52.7211 24.8133 51.1815 24.8133L51.1766 24.2461Z" fill="black"/>
<path d="M41.0926 41.5991H46.2378V42.1714C45.3111 42.1714 44.8588 42.7716 44.0136 44.4375L39.7655 52.7899V59.4536C39.7655 61.3356 40.2597 61.501 41.6758 61.501V62.0732H35.3097V61.501C36.7678 61.501 37.22 61.3356 37.22 59.4536V52.9222L32.7915 44.4884C31.9413 42.8759 31.5163 42.1663 30.5352 42.1663V41.5991H36.5305V42.1714C34.9909 42.1714 34.6202 42.7462 35.4407 44.3561L39.1279 51.4521L42.3134 45.1598C43.4008 43.0565 43.0548 42.2121 41.0926 42.1561V41.5991Z" fill="black"/>
<path d="M52.6043 55.9264C52.6043 51.6662 51.1734 47.7622 48.2276 47.7622C46.3988 47.7622 44.5948 49.2882 44.5948 52.8692C44.5948 57.0734 46.1072 61.1682 49.0777 61.1682C50.8818 61.1682 52.6043 59.5303 52.6043 55.9264ZM42.0469 54.4792C42.0469 49.9469 44.9655 46.6431 48.6255 46.6431C52.2336 46.6431 55.2041 49.9494 55.2041 54.4792C55.2041 59.0089 52.2855 62.2873 48.6255 62.2873C45.0174 62.2873 42.0469 59.0115 42.0469 54.4792Z" fill="black"/>
<path d="M55.2586 62.0683V61.5596C56.0543 61.5596 56.4942 61.3689 56.4942 59.9217V51.0402C56.4942 49.1022 56.4942 48.7512 55.1152 48.9928V48.4842L58.9532 46.48V49.9746C59.8552 48.2552 61.1773 46.5893 62.7441 46.5893C63.8859 46.5893 64.474 47.2989 64.474 48.2553C64.474 49.0742 63.9971 49.6999 63.2013 49.6999C62.2474 49.6999 62.0349 48.9648 61.2119 48.9648C60.5224 48.9648 59.7539 50.1373 58.9581 51.6405V59.9115C58.9581 61.3587 59.3807 61.5494 60.7869 61.5494V62.0581L55.2586 62.0683Z" fill="black"/>
<path d="M72.5245 61.5495C73.7182 61.5495 73.8244 61.14 73.083 60.2397L68.2813 54.3162V54.0618L72.4454 49.7381C73.7997 48.3189 73.2684 47.4491 72.0747 47.4491V46.8895H77.1681V47.4618C76.2117 47.4618 75.5766 48.0086 74.0122 49.6466L70.456 53.3878L75.4703 59.6115C76.6639 61.1121 77.2002 61.5495 77.8576 61.5495V62.0582H72.5245V61.5495ZM64.2234 62.0582V61.5495C65.0192 61.5495 65.4591 61.3588 65.4591 59.9116V45.8188C65.4591 44.1554 65.4591 43.8553 64.0801 44.0715V43.5272L67.9279 41.6426V59.9116C67.9279 61.3588 68.3233 61.5495 69.5169 61.5495V62.0582H64.2234Z" fill="black"/>
<path d="M20.1249 60.4329H18.5334C15.8817 60.4329 14.7671 60.8704 14.6881 64.7566H13.9961V59.2324H28.8239V64.7439H28.1319C28.0529 60.8678 26.9136 60.4202 24.2594 60.4202H22.6704V77.0741C22.6704 78.9562 23.1992 79.1215 24.6054 79.1215V79.6938H18.1775V79.1215C19.69 79.1215 20.115 78.9562 20.115 77.0741L20.1249 60.4329Z" fill="black"/>
<path d="M30.2549 61.9262C30.2485 61.708 30.2851 61.4907 30.3625 61.2875C30.4399 61.0843 30.5564 60.8993 30.7051 60.7436C30.8538 60.588 31.0316 60.4649 31.2277 60.3818C31.4239 60.2988 31.6343 60.2574 31.8464 60.2603C32.0591 60.2548 32.2707 60.2944 32.468 60.3766C32.6652 60.4588 32.844 60.5818 32.9932 60.738C33.1424 60.8941 33.2589 61.0802 33.3354 61.2846C33.4119 61.489 33.4468 61.7073 33.4379 61.9262C33.4462 62.1436 33.4108 62.3604 33.3338 62.563C33.2567 62.7656 33.1398 62.9496 32.9903 63.1035C32.8408 63.2573 32.662 63.3776 32.4652 63.4569C32.2683 63.5362 32.0576 63.5727 31.8464 63.5641C31.6357 63.5704 31.426 63.5324 31.2301 63.4523C31.0343 63.3722 30.8563 63.2518 30.7073 63.0984C30.5583 62.9451 30.4413 62.762 30.3635 62.5604C30.2857 62.3588 30.2487 62.143 30.2549 61.9262ZM29.4591 79.7068V79.1982C30.282 79.1982 30.7343 79.0074 30.7343 77.5628V68.6788C30.7343 66.7408 30.7071 66.3898 29.3281 66.6314V66.1227L33.1735 64.1287V77.5628C33.1735 79.0074 33.5713 79.1982 34.5525 79.1982V79.7068H29.4591Z" fill="black"/>
<path d="M35.1121 79.7065V79.1979C35.9054 79.1979 36.3477 79.0071 36.3477 77.5625V68.6785C36.3477 66.7405 36.3477 66.3895 34.9688 66.6311V66.1224L38.7894 64.1284V66.9694C39.7433 65.6977 41.0951 64.2124 43.1908 64.2124C45.1678 64.2124 46.2675 65.4128 46.6679 67.2415C47.6564 65.8757 49.0552 64.2124 51.2546 64.2124C53.7259 64.2124 54.9962 66.041 54.9962 68.7421V77.5625C54.9962 79.0071 55.4459 79.1979 56.2961 79.1979V79.7065H51.0273V79.1979C52.1146 79.1979 52.5644 79.0071 52.5644 77.5625V69.1414C52.5644 67.0686 51.7439 66.0894 50.2562 66.0894C48.6672 66.0894 47.6589 67.3738 46.915 68.4114V77.5676C46.915 79.0122 47.3129 79.2029 48.4546 79.2029V79.7116H42.9362V79.2029C43.9964 79.2029 44.4487 79.0122 44.4487 77.5676V69.1414C44.4487 67.0686 43.6257 66.0894 42.1405 66.0894C40.5761 66.0894 39.5407 67.3738 38.7993 68.4114V77.5676C38.7993 79.0122 39.1971 79.2029 40.3636 79.2029V79.7116L35.1121 79.7065Z" fill="black"/>
<path d="M58.748 69.4442H65.4576C65.245 66.9847 64.2639 65.3748 62.3289 65.3748C60.8955 65.3748 59.2497 66.6465 58.748 69.4442ZM56.252 72.7175C56.252 67.2315 59.7291 64.2837 62.7243 64.2837C65.9098 64.2837 68.0574 66.6846 68.0574 70.5073H58.6145C58.5914 70.7524 58.5823 70.9987 58.5873 71.2449C58.5873 75.3931 60.6286 77.9314 63.3891 77.9314C65.245 77.9314 66.7847 76.7029 67.5532 74.2206L68.1365 74.4393C67.5804 77.4685 65.6429 79.9254 62.3808 79.9254C58.5083 79.9254 56.252 76.619 56.252 72.7175Z" fill="black"/>
<path d="M73.7609 73.7019C73.0961 73.211 72.2781 72.6642 71.4799 72.1173C69.9675 71.0542 69.0383 69.7444 69.0383 68.048C69.0383 65.6191 70.867 64.2812 73.0442 64.2812C74.7148 64.2812 75.5897 65.1002 76.0419 65.1002C76.4126 65.1002 76.5708 64.8815 76.6252 64.528H77.2084V69.0017H76.598C76.1729 66.4584 74.6629 65.3444 72.891 65.3444C71.6554 65.3444 71.0079 66.1354 71.0079 67.257C71.0079 68.3786 71.7789 69.0857 72.9726 69.8766C73.6349 70.3675 74.5369 70.9703 75.2536 71.5146C76.8179 72.6616 77.9844 73.8367 77.9844 75.9095C77.9844 78.1222 76.2545 79.895 73.6077 79.895C71.4601 79.895 70.5581 78.9412 69.9996 78.9412C69.6017 78.9412 69.3892 79.3761 69.3645 79.7042H68.7812V74.4903H69.3892C69.6833 77.4126 71.6727 78.8318 73.6077 78.8318C75.1201 78.8318 75.7577 77.8145 75.7577 76.6471C75.7577 75.3627 75.1473 74.6811 73.7683 73.6993" fill="black"/>
<path d="M35.8692 94.0865L32.9036 92.0366C31.0205 90.7827 29.6909 89.0354 29.6909 86.8786C29.6909 83.9588 31.9991 81.9648 34.8634 81.9648C37.3841 81.9648 38.2317 82.9822 38.9212 82.9822C39.2128 82.9822 39.4526 82.7635 39.5045 82.2726H40.1149V87.4051H39.4526C39.1066 84.5387 37.1963 83.1195 34.678 83.1195C33.0321 83.1195 31.8657 84.2106 31.8657 86.0393C31.8657 87.7052 32.9259 88.8243 34.2529 89.7247L37.2185 91.7466C39.3661 93.2193 41.2245 94.7987 41.2245 97.5608C41.2245 100.699 38.8372 103.047 35.2291 103.047C32.523 103.047 31.3022 101.874 30.6127 101.874C30.2939 101.874 30.0567 102.174 30.0048 102.747H29.3672V96.6528H30.0567C30.3038 99.9007 32.2809 101.895 35.3873 101.895C37.4829 101.895 38.81 100.529 38.81 98.3975C38.81 96.5434 37.6683 95.287 35.8667 94.0865" fill="black"/>
<path d="M45.8405 103.039C43.9574 103.039 42.6055 101.976 42.6055 99.3285V88.8448H41.2266V88.3539C42.8972 87.8452 43.8264 86.0038 44.3552 83.5215H45.0719V87.5604H48.8382V88.8448H45.0719V99.1098C45.0719 100.773 45.6823 101.399 46.6906 101.399C47.6989 101.399 48.3884 100.636 48.7319 98.451L49.2904 98.5324C49.0779 101.076 48.1759 103.037 45.8306 103.037" fill="black"/>
<path d="M49.9727 104.868C49.9616 104.708 49.9831 104.548 50.0359 104.397C50.0886 104.247 50.1714 104.109 50.279 103.993C50.3865 103.878 50.5164 103.787 50.6603 103.726C50.8042 103.665 50.9589 103.635 51.1144 103.64C52.0684 103.64 52.3328 104.657 53.3955 104.657C54.0306 104.657 55.3354 103.327 55.6196 101.953L51.3319 90.1014C50.7487 88.4889 50.5633 88.1354 49.7676 88.1354V87.5605H55.0463V88.143C53.7736 88.143 53.215 88.4965 53.7736 90.109L56.9047 99.0616L59.5292 91.8563C60.4831 89.2621 59.9543 88.143 58.3603 88.143V87.5682H63.0558V88.143C62.2575 88.143 61.7806 89.1603 61.1454 90.844L56.9294 102.386C56.1485 104.286 54.4581 106.59 52.3081 106.59C51.0082 106.59 49.9727 105.987 49.9727 104.868Z" fill="black"/>
<path d="M62.6054 102.74V102.231C63.4556 102.231 63.9053 102.04 63.9053 100.595V85.1318C63.9053 83.4659 63.9053 83.1658 62.4473 83.3845V82.8377L66.3717 80.9556V100.585C66.3717 102.03 66.7696 102.221 67.6716 102.221V102.729L62.6054 102.74Z" fill="black"/>
<path d="M70.0873 92.4667H76.7993C76.5868 90.0073 75.6057 88.3973 73.6682 88.3973C72.2373 88.3973 70.5914 89.669 70.0873 92.4667ZM67.6036 95.7502C67.6036 90.2642 71.0783 87.3164 74.076 87.3164C77.259 87.3164 79.409 89.7173 79.409 93.54H69.9538C69.9328 93.7853 69.9245 94.0315 69.9291 94.2776C69.9291 98.4258 71.9704 100.964 74.7284 100.964C76.5868 100.964 78.124 99.7357 78.895 97.2533L79.4782 97.4721C78.9222 100.501 76.9847 102.958 73.7226 102.958C69.8501 102.958 67.5938 99.6517 67.5938 95.7502" fill="black"/>
<path d="M69.7331 122.908V122.4C70.556 122.4 71.0058 122.209 71.0058 120.762V111.88C71.0058 109.942 70.9786 109.591 69.5996 109.83V109.322L73.4474 107.328V120.759C73.4474 122.206 73.8453 122.397 74.8264 122.397V122.906L69.7331 122.908Z" fill="black"/>
<path d="M70.5281 105.367C70.5214 105.148 70.5578 104.931 70.6351 104.728C70.7124 104.525 70.8289 104.34 70.9778 104.184C71.1266 104.029 71.3045 103.906 71.5008 103.823C71.697 103.74 71.9076 103.7 72.1196 103.703C72.3323 103.697 72.5438 103.737 72.7411 103.819C72.9383 103.9 73.1171 104.023 73.2664 104.179C73.4156 104.335 73.5321 104.521 73.6086 104.725C73.6851 104.93 73.72 105.148 73.7112 105.367C73.7195 105.584 73.6841 105.801 73.607 106.003C73.53 106.206 73.4131 106.39 73.2636 106.544C73.1141 106.698 72.9353 106.818 72.7384 106.897C72.5416 106.977 72.3309 107.013 72.1196 107.004C71.909 107.011 71.6993 106.973 71.5034 106.893C71.3075 106.813 71.1296 106.692 70.9806 106.539C70.8316 106.385 70.7146 106.202 70.6367 106.001C70.5589 105.799 70.522 105.583 70.5281 105.367Z" fill="black"/>
<path d="M0 102.966V102.386H5.07853L10.33 118.027L15.458 102.386H20.45V102.958C19.071 102.958 18.6213 103.121 18.6213 105.033V120.212C18.6213 122.122 19.071 122.288 20.45 122.288V122.86H14.1111V122.288C15.4901 122.288 16.0734 122.122 16.0734 120.212V104.494L10.078 122.677H9.36129L3.12867 104.494V119.264C3.12867 121.83 3.89724 122.295 5.48876 122.295V122.867H0V122.295C1.37899 122.295 1.82876 121.911 1.82876 119.592V105.041C1.82876 103.322 1.37899 103.022 0 102.966Z" fill="black"/>
<path d="M25.6502 121.502C26.9229 121.502 27.8743 120.658 28.8628 119.264V113.64C28.5915 114.089 28.2184 114.464 27.7755 114.732C26.9797 115.24 26.184 115.469 25.1757 116.016C23.94 116.698 23.2135 117.598 23.2135 118.938C23.2135 120.492 24.202 121.502 25.6526 121.502H25.6502ZM20.71 119.292C20.71 116.748 22.2744 115.525 24.4491 114.732C25.5908 114.325 26.6263 114.05 27.4147 113.64C27.8666 113.441 28.2485 113.104 28.5095 112.675C28.7704 112.246 28.898 111.745 28.8752 111.239C28.8752 109.574 27.8867 108.48 26.221 108.48C24.4911 108.48 23.8881 109.327 23.6756 110.937C23.5421 111.954 23.1443 112.687 22.2694 112.687C21.4465 112.687 20.9967 112.112 20.9967 111.321C20.9967 109.408 23.1714 107.361 26.567 107.361C29.4856 107.361 31.2625 108.755 31.2625 111.685V120.502C31.2625 121.159 31.475 121.52 31.9792 121.52C32.377 121.52 32.6934 121.329 33.0393 120.838L33.331 121.192C32.9603 122.039 32.1892 123.132 30.8374 123.132C29.5894 123.132 28.848 122.285 28.848 120.785V120.566C27.9732 121.838 26.6733 123.214 24.7111 123.214C22.43 123.214 20.7051 121.657 20.7051 119.31" fill="black"/>
<path d="M41.4844 112.984C41.4844 111.074 40.7158 108.507 38.5189 108.507C37.219 108.507 35.9981 109.464 35.9981 111.814C35.9981 114.08 37.0336 116.181 38.9637 116.181C40.528 116.181 41.4819 114.952 41.4819 112.986L41.4844 112.984ZM39.1812 126.881C41.991 126.881 43.4763 125.324 43.4763 123.768C43.4763 122.75 42.9202 121.987 40.8765 121.987H37.2437C36.8887 121.989 36.5342 121.962 36.1835 121.906C35.8126 122.138 35.5041 122.461 35.2861 122.847C35.0681 123.234 34.9476 123.67 34.9355 124.116C34.9355 125.835 36.3416 126.873 39.1812 126.873V126.881ZM32.6816 124.744C32.6816 123.432 33.9544 122.201 35.2271 121.606C34.2732 121.14 33.7937 120.375 33.7937 119.502C33.7937 118.165 35.0689 117.127 36.1291 116.58C35.3666 116.192 34.7243 115.593 34.2742 114.851C33.8242 114.108 33.5842 113.251 33.5812 112.376C33.5812 109.675 35.8054 107.462 38.5955 107.462C39.1601 107.458 39.7228 107.531 40.2685 107.681H44.9368V108.698H41.9367C42.5514 109.077 43.0558 109.619 43.3971 110.267C43.7384 110.916 43.904 111.647 43.8766 112.383C43.8766 115.115 41.6525 117.216 38.7586 117.216C38.2121 117.214 37.6681 117.141 37.1399 116.997C36.1513 117.506 35.6793 118.035 35.6793 118.635C35.6793 119.182 36.1316 119.619 37.2189 119.619H40.5354C43.9829 119.619 45.1518 120.957 45.1518 122.977C45.1518 125.38 42.9499 128 38.5189 128C34.8589 128 32.6841 126.634 32.6841 124.752" fill="black"/>
<path d="M50.0029 121.502C51.2756 121.502 52.227 120.658 53.2156 119.264V113.64C52.9432 114.089 52.5693 114.464 52.1257 114.732C51.33 115.24 50.5367 115.469 49.5284 116.016C48.2804 116.698 47.5513 117.598 47.5513 118.938C47.5513 120.492 48.5399 121.502 49.993 121.502H50.0029ZM45.0504 119.292C45.0504 116.748 46.6172 115.525 48.7919 114.732C49.9312 114.325 50.9667 114.05 51.7575 113.64C52.2087 113.44 52.5899 113.103 52.8504 112.674C53.1109 112.245 53.2382 111.745 53.2156 111.239C53.2156 109.574 52.227 108.48 50.5639 108.48C48.8339 108.48 48.2285 109.327 48.0184 110.937C47.885 111.954 47.4871 112.687 46.6122 112.687C45.7893 112.687 45.3371 112.112 45.3371 111.321C45.3371 109.408 47.5143 107.361 50.9074 107.361C53.826 107.361 55.6028 108.755 55.6028 111.685V120.502C55.6028 121.159 55.8129 121.52 56.317 121.52C56.7149 121.52 57.0337 121.329 57.3772 120.838L57.6713 121.192C57.2982 122.039 56.5296 123.132 55.1778 123.132C53.9298 123.132 53.1884 122.285 53.1884 120.785V120.566C52.3111 121.838 51.0112 123.214 49.049 123.214C46.7679 123.214 45.043 121.657 45.043 119.31" fill="black"/>
<path d="M58.6765 107.688H68.8607V108.263L60.8512 121.695H64.2468C67.0048 121.695 67.6424 121.186 67.8549 117.844H68.5172V122.867H57.8906V122.295L65.9001 108.864H62.3884C60.1889 108.864 59.4451 109.298 59.366 112.249H58.6765V107.688Z" fill="black"/>
<path d="M75.1471 122.867V122.359C75.9429 122.359 76.3951 122.168 76.3951 120.721V111.839C76.3951 109.899 76.3951 109.55 75.0137 109.792V109.283L78.8343 107.289V110.183C79.8426 108.818 80.5469 107.37 82.6426 107.37C85.2696 107.37 86.6214 109.227 86.6214 111.875V120.721C86.6214 122.168 87.0736 122.359 87.9213 122.359V122.867H82.5907V122.359C83.7299 122.359 84.1822 122.168 84.1822 120.721V112.274C84.1822 110.336 83.3321 109.245 81.6343 109.245C79.8846 109.245 79.6054 110.501 78.8343 111.592V120.71C78.8343 122.158 79.2322 122.348 80.4258 122.348V122.857L75.1471 122.867Z" fill="black"/>
<path d="M90.1459 112.603H96.8555C96.6429 110.146 95.6618 108.533 93.7268 108.533C92.2934 108.533 90.65 109.818 90.1459 112.603ZM87.6523 115.879C87.6523 110.393 91.127 107.442 94.1247 107.442C97.3077 107.442 99.4553 109.846 99.4553 113.669H90.0124C89.9893 113.914 89.9802 114.16 89.9853 114.406C89.9853 118.554 92.0265 121.093 94.787 121.093C96.6429 121.093 98.1826 119.864 98.9511 117.382L99.5368 117.601C98.9783 120.63 97.0433 123.087 93.7787 123.087C89.9062 123.087 87.6523 119.78 87.6523 115.879Z" fill="black"/>
<path d="M66.84 30.3831H115.614L122.691 24.3096H59.1172V38.3973L66.84 30.3831Z" fill="black"/>
<path d="M67.5378 32.1099L60.2969 39.623H82.2643L89.5373 32.1099H67.5378Z" fill="black"/>
<path d="M90.7198 33.3359L83.4492 40.8465V101.577L90.7198 94.0792V33.3359Z" fill="black"/>
<path d="M116.22 32.1099H92.3971V94.7937L84.6348 102.8H99.6677V39.623H124V25.4336L116.22 32.1099Z" fill="black"/>
<path d="M66.84 30.3831H115.614L122.691 24.3096H59.1172V38.3973L66.84 30.3831Z" fill="black"/>
<path d="M67.5397 32.1099L60.2988 39.623H82.2662L89.5393 32.1099H67.5397Z" fill="black"/>
<path d="M116.22 32.1099H92.3971V94.7937L84.6348 102.8H99.6677V39.623H124V25.4336L116.22 32.1099Z" fill="black"/>
</g>
<defs>
<clipPath id="clip0_887_1050">
<rect width="124" height="128" fill="white"/>
</clipPath>
</defs>
</svg>
